<mxfile host="app.diagrams.net" agent="Mozilla/5.0 (Windows NT 6.1; WOW64) AppleWebKit/537.36 (KHTML, like Gecko) Chrome/109.0.0.0 Safari/537.36 OPR/95.0.0.0" version="24.9.3">
  <diagram name="Страница — 1" id="DqKR-lJsqv23mNoNntch">
    <mxGraphModel dx="2461" dy="806" grid="1" gridSize="10" guides="1" tooltips="1" connect="1" arrows="1" fold="1" page="1" pageScale="1" pageWidth="827" pageHeight="1169" math="0" shadow="0">
      <root>
        <mxCell id="0" />
        <mxCell id="1" parent="0" />
        <mxCell id="lLrhe45q68D055AZLui8-1" value="" style="rounded=0;whiteSpace=wrap;html=1;dashed=1;" vertex="1" parent="1">
          <mxGeometry x="-10" y="634" width="600" height="280" as="geometry" />
        </mxCell>
        <mxCell id="lLrhe45q68D055AZLui8-2" value="" style="rounded=0;whiteSpace=wrap;html=1;dashed=1;" vertex="1" parent="1">
          <mxGeometry x="725" y="460" width="520" height="170" as="geometry" />
        </mxCell>
        <mxCell id="lLrhe45q68D055AZLui8-3" value="" style="rounded=0;whiteSpace=wrap;html=1;dashed=1;" vertex="1" parent="1">
          <mxGeometry x="177" y="450" width="410" height="150" as="geometry" />
        </mxCell>
        <mxCell id="lLrhe45q68D055AZLui8-4" value="" style="rounded=0;whiteSpace=wrap;html=1;dashed=1;" vertex="1" parent="1">
          <mxGeometry x="692" y="280" width="520" height="140" as="geometry" />
        </mxCell>
        <mxCell id="lLrhe45q68D055AZLui8-5" value="&lt;b&gt;&lt;font style=&quot;font-size: 14px;&quot;&gt;Схема возврата товара от розничного покупателя&lt;/font&gt;&lt;/b&gt;" style="text;html=1;align=center;verticalAlign=middle;whiteSpace=wrap;rounded=0;" vertex="1" parent="1">
          <mxGeometry x="531" y="140" width="319" height="30" as="geometry" />
        </mxCell>
        <mxCell id="lLrhe45q68D055AZLui8-6" value="Заказ клиента" style="rounded=0;whiteSpace=wrap;html=1;fillColor=#d5e8d4;strokeColor=#82b366;" vertex="1" parent="1">
          <mxGeometry x="333.5" y="279" width="170" height="41" as="geometry" />
        </mxCell>
        <mxCell id="lLrhe45q68D055AZLui8-7" value="&lt;font style=&quot;font-size: 14px;&quot;&gt;&lt;b&gt;Отгрузка товара (основная)&lt;/b&gt;&lt;/font&gt;&lt;div&gt;от &quot;Компания №1&quot; покупателю &quot;Розница&quot;&lt;/div&gt;" style="text;html=1;align=center;verticalAlign=middle;whiteSpace=wrap;rounded=0;" vertex="1" parent="1">
          <mxGeometry x="298.5" y="239" width="256" height="30" as="geometry" />
        </mxCell>
        <mxCell id="lLrhe45q68D055AZLui8-8" value="Реализация товаров и услуг" style="rounded=0;whiteSpace=wrap;html=1;fillColor=#d5e8d4;strokeColor=#82b366;" vertex="1" parent="1">
          <mxGeometry x="333.5" y="360" width="170" height="41" as="geometry" />
        </mxCell>
        <mxCell id="lLrhe45q68D055AZLui8-9" value="" style="endArrow=classic;html=1;rounded=0;exitX=0.5;exitY=1;exitDx=0;exitDy=0;entryX=0.5;entryY=0;entryDx=0;entryDy=0;" edge="1" parent="1" source="lLrhe45q68D055AZLui8-6" target="lLrhe45q68D055AZLui8-8">
          <mxGeometry width="50" height="50" relative="1" as="geometry">
            <mxPoint x="963.5" y="450" as="sourcePoint" />
            <mxPoint x="1013.5" y="400" as="targetPoint" />
          </mxGeometry>
        </mxCell>
        <mxCell id="lLrhe45q68D055AZLui8-10" value="Реализация товаров и услуг&lt;div&gt;от &quot;ООО Дакар&quot; клиенту&lt;br&gt;&quot;Физическое Лицо №1&quot;&lt;br&gt;&lt;/div&gt;" style="rounded=0;whiteSpace=wrap;html=1;fillColor=#fff2cc;strokeColor=#d6b656;" vertex="1" parent="1">
          <mxGeometry x="728.5" y="355" width="190" height="51" as="geometry" />
        </mxCell>
        <mxCell id="lLrhe45q68D055AZLui8-11" value="Приобретение товаров и услуг&lt;br&gt;от &quot;ООО Дакарт&quot; в компанию &quot;Компания №1&quot;" style="rounded=0;whiteSpace=wrap;html=1;fillColor=#dae8fc;strokeColor=#6c8ebf;" vertex="1" parent="1">
          <mxGeometry x="982" y="355.5" width="190" height="50" as="geometry" />
        </mxCell>
        <mxCell id="lLrhe45q68D055AZLui8-12" value="" style="endArrow=classic;html=1;rounded=0;exitX=1;exitY=0.5;exitDx=0;exitDy=0;entryX=0;entryY=0.5;entryDx=0;entryDy=0;" edge="1" parent="1" source="lLrhe45q68D055AZLui8-10" target="lLrhe45q68D055AZLui8-11">
          <mxGeometry width="50" height="50" relative="1" as="geometry">
            <mxPoint x="1368.5" y="450" as="sourcePoint" />
            <mxPoint x="1418.5" y="400" as="targetPoint" />
          </mxGeometry>
        </mxCell>
        <mxCell id="lLrhe45q68D055AZLui8-13" value="&lt;b&gt;&lt;font style=&quot;font-size: 14px;&quot;&gt;Перепродажа&amp;nbsp;&lt;/font&gt;&lt;/b&gt;&lt;div&gt;с &quot;ООО Дакар&quot; на&quot;Компания №1&lt;/div&gt;" style="text;html=1;align=center;verticalAlign=middle;whiteSpace=wrap;rounded=0;" vertex="1" parent="1">
          <mxGeometry x="835.5" y="300" width="216.5" height="30" as="geometry" />
        </mxCell>
        <mxCell id="lLrhe45q68D055AZLui8-14" value="" style="endArrow=classic;html=1;rounded=0;exitX=1;exitY=0.5;exitDx=0;exitDy=0;entryX=0;entryY=0.5;entryDx=0;entryDy=0;" edge="1" parent="1" source="lLrhe45q68D055AZLui8-8" target="lLrhe45q68D055AZLui8-10">
          <mxGeometry width="50" height="50" relative="1" as="geometry">
            <mxPoint x="1076.5" y="450" as="sourcePoint" />
            <mxPoint x="707" y="300" as="targetPoint" />
            <Array as="points">
              <mxPoint x="676.5" y="380" />
            </Array>
          </mxGeometry>
        </mxCell>
        <mxCell id="lLrhe45q68D055AZLui8-15" value="Возврат товаров от клиента" style="rounded=0;whiteSpace=wrap;html=1;fillColor=#f8cecc;strokeColor=#b85450;" vertex="1" parent="1">
          <mxGeometry x="306.25" y="499" width="224.5" height="60" as="geometry" />
        </mxCell>
        <mxCell id="lLrhe45q68D055AZLui8-16" value="&lt;span style=&quot;font-size: 14px;&quot;&gt;&lt;b&gt;Возврат товара от клиента&lt;br&gt;(основная)&lt;/b&gt;&lt;/span&gt;" style="text;html=1;align=center;verticalAlign=middle;whiteSpace=wrap;rounded=0;" vertex="1" parent="1">
          <mxGeometry x="177" y="457" width="209.5" height="30" as="geometry" />
        </mxCell>
        <mxCell id="lLrhe45q68D055AZLui8-17" value="" style="endArrow=classic;html=1;rounded=0;exitX=0.5;exitY=1;exitDx=0;exitDy=0;entryX=0.5;entryY=0;entryDx=0;entryDy=0;" edge="1" parent="1" source="lLrhe45q68D055AZLui8-10">
          <mxGeometry width="50" height="50" relative="1" as="geometry">
            <mxPoint x="602" y="740" as="sourcePoint" />
            <mxPoint x="823.5" y="530" as="targetPoint" />
          </mxGeometry>
        </mxCell>
        <mxCell id="lLrhe45q68D055AZLui8-18" value="" style="endArrow=classic;html=1;rounded=0;exitX=0.5;exitY=1;exitDx=0;exitDy=0;entryX=0.5;entryY=0;entryDx=0;entryDy=0;" edge="1" parent="1" source="lLrhe45q68D055AZLui8-11">
          <mxGeometry width="50" height="50" relative="1" as="geometry">
            <mxPoint x="602" y="740" as="sourcePoint" />
            <mxPoint x="1076.625" y="530" as="targetPoint" />
          </mxGeometry>
        </mxCell>
        <mxCell id="lLrhe45q68D055AZLui8-19" value="Корректировка Приобретения товаров и услуг" style="rounded=0;whiteSpace=wrap;html=1;fillColor=#f8cecc;strokeColor=#b85450;" vertex="1" parent="1">
          <mxGeometry x="1001" y="530" width="224.5" height="60" as="geometry" />
        </mxCell>
        <mxCell id="lLrhe45q68D055AZLui8-20" value="Корректировка Реализации товаров и услуг" style="rounded=0;whiteSpace=wrap;html=1;fillColor=#f8cecc;strokeColor=#b85450;" vertex="1" parent="1">
          <mxGeometry x="762.5" y="530" width="197.25" height="60" as="geometry" />
        </mxCell>
        <mxCell id="lLrhe45q68D055AZLui8-21" value="&lt;span style=&quot;font-size: 14px;&quot;&gt;Корректировки&lt;/span&gt;" style="text;html=1;align=center;verticalAlign=middle;whiteSpace=wrap;rounded=0;" vertex="1" parent="1">
          <mxGeometry x="856" y="470" width="260" height="30" as="geometry" />
        </mxCell>
        <mxCell id="lLrhe45q68D055AZLui8-22" value="&lt;font style=&quot;font-size: 12px;&quot; face=&quot;Arial&quot;&gt;Расходный ордер на товары&lt;/font&gt;" style="rounded=0;whiteSpace=wrap;html=1;fillColor=#d5e8d4;strokeColor=#82b366;" vertex="1" parent="1">
          <mxGeometry x="34" y="742" width="170" height="41" as="geometry" />
        </mxCell>
        <mxCell id="lLrhe45q68D055AZLui8-23" value="&lt;font style=&quot;font-size: 12px;&quot; face=&quot;Arial&quot;&gt;Отбор (размещение) товаров&lt;/font&gt;" style="rounded=0;whiteSpace=wrap;html=1;fillColor=#d5e8d4;strokeColor=#82b366;" vertex="1" parent="1">
          <mxGeometry x="35" y="822" width="169" height="52" as="geometry" />
        </mxCell>
        <mxCell id="lLrhe45q68D055AZLui8-24" value="" style="endArrow=classic;html=1;rounded=0;exitX=0.5;exitY=1;exitDx=0;exitDy=0;entryX=0.5;entryY=0;entryDx=0;entryDy=0;" edge="1" parent="1" source="lLrhe45q68D055AZLui8-22" target="lLrhe45q68D055AZLui8-23">
          <mxGeometry width="50" height="50" relative="1" as="geometry">
            <mxPoint x="373.5" y="962" as="sourcePoint" />
            <mxPoint x="423.5" y="912" as="targetPoint" />
          </mxGeometry>
        </mxCell>
        <mxCell id="lLrhe45q68D055AZLui8-25" value="&lt;font style=&quot;font-size: 12px;&quot; face=&quot;Arial&quot;&gt;Приходный ордер на товар&lt;/font&gt;" style="rounded=0;whiteSpace=wrap;html=1;fillColor=#f8cecc;strokeColor=#b85450;" vertex="1" parent="1">
          <mxGeometry x="334.5" y="740" width="170" height="41" as="geometry" />
        </mxCell>
        <mxCell id="lLrhe45q68D055AZLui8-26" value="" style="endArrow=classic;html=1;rounded=0;exitX=0.5;exitY=1;exitDx=0;exitDy=0;entryX=0.5;entryY=0;entryDx=0;entryDy=0;" edge="1" parent="1" source="lLrhe45q68D055AZLui8-15" target="lLrhe45q68D055AZLui8-25">
          <mxGeometry width="50" height="50" relative="1" as="geometry">
            <mxPoint x="704" y="900" as="sourcePoint" />
            <mxPoint x="420" y="750" as="targetPoint" />
          </mxGeometry>
        </mxCell>
        <mxCell id="lLrhe45q68D055AZLui8-27" value="" style="endArrow=classic;html=1;rounded=0;exitX=0.5;exitY=1;exitDx=0;exitDy=0;entryX=0.5;entryY=0;entryDx=0;entryDy=0;" edge="1" parent="1" source="lLrhe45q68D055AZLui8-8" target="lLrhe45q68D055AZLui8-15">
          <mxGeometry width="50" height="50" relative="1" as="geometry">
            <mxPoint x="520" y="590" as="sourcePoint" />
            <mxPoint x="418.5" y="490" as="targetPoint" />
          </mxGeometry>
        </mxCell>
        <mxCell id="lLrhe45q68D055AZLui8-28" value="" style="endArrow=classic;html=1;rounded=0;exitX=0;exitY=0.5;exitDx=0;exitDy=0;entryX=0.5;entryY=0;entryDx=0;entryDy=0;" edge="1" parent="1" source="lLrhe45q68D055AZLui8-6" target="lLrhe45q68D055AZLui8-22">
          <mxGeometry width="50" height="50" relative="1" as="geometry">
            <mxPoint x="520" y="590" as="sourcePoint" />
            <mxPoint x="570" y="540" as="targetPoint" />
            <Array as="points">
              <mxPoint x="119" y="300" />
            </Array>
          </mxGeometry>
        </mxCell>
        <mxCell id="lLrhe45q68D055AZLui8-29" value="&lt;span style=&quot;font-size: 14px;&quot;&gt;&lt;b&gt;Приемка и отгрузка товаров по складу&lt;/b&gt;&lt;/span&gt;" style="text;html=1;align=center;verticalAlign=middle;whiteSpace=wrap;rounded=0;" vertex="1" parent="1">
          <mxGeometry x="124" y="644" width="289.25" height="30" as="geometry" />
        </mxCell>
        <mxCell id="lLrhe45q68D055AZLui8-30" value="&lt;span style=&quot;font-size: 14px;&quot;&gt;После оформления основного возврата&lt;/span&gt;" style="text;html=1;align=center;verticalAlign=middle;whiteSpace=wrap;rounded=0;" vertex="1" parent="1">
          <mxGeometry x="578.5" y="460" width="150" height="30" as="geometry" />
        </mxCell>
        <mxCell id="lLrhe45q68D055AZLui8-31" value="&lt;span style=&quot;font-size: 14px;&quot;&gt;По заказу клиента&lt;/span&gt;" style="text;html=1;align=center;verticalAlign=middle;whiteSpace=wrap;rounded=0;" vertex="1" parent="1">
          <mxGeometry x="77.25" y="704" width="230" height="30" as="geometry" />
        </mxCell>
        <mxCell id="lLrhe45q68D055AZLui8-32" value="&lt;span style=&quot;font-size: 14px;&quot;&gt;По основной реализации&lt;/span&gt;" style="text;html=1;align=center;verticalAlign=middle;whiteSpace=wrap;rounded=0;" vertex="1" parent="1">
          <mxGeometry x="290" y="706" width="150" height="30" as="geometry" />
        </mxCell>
        <mxCell id="lLrhe45q68D055AZLui8-33" value="&lt;font style=&quot;font-size: 12px;&quot; face=&quot;Arial&quot;&gt;Отбор (рахмещение) товаров&lt;/font&gt;" style="rounded=0;whiteSpace=wrap;html=1;fillColor=#f8cecc;strokeColor=#b85450;" vertex="1" parent="1">
          <mxGeometry x="334.5" y="827.5" width="170" height="41" as="geometry" />
        </mxCell>
        <mxCell id="lLrhe45q68D055AZLui8-34" value="" style="endArrow=classic;html=1;rounded=0;exitX=0.5;exitY=1;exitDx=0;exitDy=0;entryX=0.5;entryY=0;entryDx=0;entryDy=0;" edge="1" parent="1" source="lLrhe45q68D055AZLui8-25" target="lLrhe45q68D055AZLui8-33">
          <mxGeometry width="50" height="50" relative="1" as="geometry">
            <mxPoint x="650" y="760" as="sourcePoint" />
            <mxPoint x="700" y="710" as="targetPoint" />
          </mxGeometry>
        </mxCell>
        <mxCell id="lLrhe45q68D055AZLui8-35" value="" style="endArrow=classic;html=1;rounded=0;exitX=1;exitY=0.5;exitDx=0;exitDy=0;entryX=0.004;entryY=0.406;entryDx=0;entryDy=0;entryPerimeter=0;" edge="1" parent="1" source="lLrhe45q68D055AZLui8-15" target="lLrhe45q68D055AZLui8-2">
          <mxGeometry width="50" height="50" relative="1" as="geometry">
            <mxPoint x="650" y="560" as="sourcePoint" />
            <mxPoint x="700" y="510" as="targetPoint" />
          </mxGeometry>
        </mxCell>
      </root>
    </mxGraphModel>
  </diagram>
</mxfile>
